<mxfile host="Electron" modified="2024-05-06T22:07:18.589Z" agent="Mozilla/5.0 (X11; Linux x86_64) AppleWebKit/537.36 (KHTML, like Gecko) draw.io/24.2.5 Chrome/120.0.6099.109 Electron/28.1.0 Safari/537.36" etag="q1M9hMszdM3E_wcx49OK" version="24.2.5" type="device">
  <diagram name="Page-1" id="nIZeUvzdUxajLwfs4vlB">
    <mxGraphModel dx="1434" dy="762" grid="1" gridSize="10" guides="1" tooltips="1" connect="1" arrows="1" fold="1" page="1" pageScale="1" pageWidth="850" pageHeight="1100" math="0" shadow="0">
      <root>
        <mxCell id="0" />
        <mxCell id="1" parent="0" />
        <mxCell id="UdDGJFr2nh46x9bYxFf4-2" value="" style="endArrow=baseDash;html=1;rounded=0;startArrow=baseDash;startFill=0;endFill=0;" parent="1" edge="1">
          <mxGeometry width="50" height="50" relative="1" as="geometry">
            <mxPoint x="200" y="80" as="sourcePoint" />
            <mxPoint x="520" y="80" as="targetPoint" />
          </mxGeometry>
        </mxCell>
        <mxCell id="UdDGJFr2nh46x9bYxFf4-3" value="32 bits" style="edgeLabel;html=1;align=center;verticalAlign=middle;resizable=0;points=[];" parent="UdDGJFr2nh46x9bYxFf4-2" vertex="1" connectable="0">
          <mxGeometry x="-0.0218" relative="1" as="geometry">
            <mxPoint as="offset" />
          </mxGeometry>
        </mxCell>
        <mxCell id="UdDGJFr2nh46x9bYxFf4-4" value="Mode" style="rounded=0;whiteSpace=wrap;html=1;" parent="1" vertex="1">
          <mxGeometry x="200" y="120" width="80" height="40" as="geometry" />
        </mxCell>
        <mxCell id="UdDGJFr2nh46x9bYxFf4-5" value="SHUTDOWN&lt;div&gt;REQUEST&lt;/div&gt;" style="rounded=0;whiteSpace=wrap;html=1;" parent="1" vertex="1">
          <mxGeometry x="280" y="120" width="80" height="40" as="geometry" />
        </mxCell>
        <mxCell id="UdDGJFr2nh46x9bYxFf4-6" value="Unused" style="rounded=0;whiteSpace=wrap;html=1;" parent="1" vertex="1">
          <mxGeometry x="360" y="120" width="160" height="40" as="geometry" />
        </mxCell>
        <mxCell id="UdDGJFr2nh46x9bYxFf4-7" value="Task Id" style="rounded=0;whiteSpace=wrap;html=1;" parent="1" vertex="1">
          <mxGeometry x="200" y="160" width="320" height="40" as="geometry" />
        </mxCell>
      </root>
    </mxGraphModel>
  </diagram>
</mxfile>
